# xmcd CD database file
#
# Track frame offsets:
#	180
#	8941
#	21957
#	38062
#	53909
#	76861
#	97609
#	116549
#	128828
#	147907
#	171031
#	184718
#
# Disc length: 2613 seconds
#
# Revision: 0
# Processed by: cddbd v1.4PL0 Copyright (c) Steve Scherf et al.
# Submitted via: CDex 1.51
#
DISCID=8d0a330c
DTITLE=Tao Ravao, Vincent Bucher - Tany Manga
DYEAR=1993
DGENRE=Blues
TTITLE0=Trois rivières
TTITLE1=Un monde en miette
TTITLE2=Changer de visage
TTITLE3=Marary
TTITLE4=Faut pas oublier
TTITLE5=Sarah
TTITLE6=J' prends mon temps
TTITLE7=Mandihiza
TTITLE8=Moonshine
TTITLE9=Lonesome blue
TTITLE10=Here my train coming
TTITLE11=Manakory!
EXTD=YEAR: 1993
EXTT0=
EXTT1=
EXTT2=
EXTT3=
EXTT4=
EXTT5=
EXTT6=
EXTT7=
EXTT8=
EXTT9=
EXTT10=
EXTT11=
PLAYORDER=
